<?xml version="1.0" encoding="UTF-8" standalone="no"?>
<!-- Created with Inkscape (http://www.inkscape.org/) -->

<svg
   version="1.1"
   id="svg1"
   width="581.88"
   height="184.46667"
   viewBox="0 0 581.88 184.46667"
   xmlns="http://www.w3.org/2000/svg"
   xmlns:svg="http://www.w3.org/2000/svg">
  <defs
     id="defs1" />
  <g
     id="g1">
    <g
       id="group-R5">
      <path
         id="path2"
         d="M 449.949,1021.17 H 305.004 L 291.957,803.004 c 7.969,-1.203 15.742,-3.535 23.07,-6.949 l 134.922,225.115"
         style="fill:#231f20;fill-opacity:1;fill-rule:nonzero;stroke:none"
         transform="matrix(0.13333333,0,0,-0.13333333,0,184.46667)" />
      <path
         id="path3"
         d="m 337.281,526.328 c -0.398,0.192 -0.804,0.387 -1.203,0.578 v -17.707 c 2.32,-1.074 4.707,-2.129 7.199,-3.133 11.102,-4.484 24.465,-8.023 45.051,-8.023 22.496,0 36.371,4.219 48.082,9.289 v 17.582 c -12.148,-5.769 -24.562,-10.875 -48.082,-10.875 -21.57,0 -33.793,4.297 -45.051,9.457 -2.007,0.93 -3.996,1.875 -5.996,2.832"
         style="fill:#231f20;fill-opacity:1;fill-rule:nonzero;stroke:none"
         transform="matrix(0.13333333,0,0,-0.13333333,0,184.46667)" />
      <path
         id="path4"
         d="m 343.277,458.508 c -2.007,0.926 -3.996,1.875 -5.996,2.832 -0.398,0.187 -0.804,0.379 -1.203,0.574 v -17.703 c 2.32,-1.074 4.707,-2.129 7.199,-3.137 11.102,-4.48 24.465,-8.027 45.051,-8.027 15.801,0 27.332,2.09 36.867,5.09 v 16.933 c -9.316,-3.496 -20.347,-6.019 -36.867,-6.019 -21.57,0 -33.793,4.293 -45.051,9.457"
         style="fill:#231f20;fill-opacity:1;fill-rule:nonzero;stroke:none"
         transform="matrix(0.13333333,0,0,-0.13333333,0,184.46667)" />
      <path
         id="path5"
         d="m 343.277,393.637 c -2.007,0.926 -3.996,1.871 -5.996,2.832 -0.398,0.191 -0.804,0.383 -1.203,0.574 V 379.34 c 2.32,-1.07 4.707,-2.129 7.199,-3.129 11.102,-4.492 24.465,-8.031 45.051,-8.031 8.211,0 15.25,0.582 21.481,1.539 v 16.23 c -6.075,-1.109 -13.051,-1.773 -21.481,-1.773 -21.57,0 -33.793,4.301 -45.051,9.461"
         style="fill:#231f20;fill-opacity:1;fill-rule:nonzero;stroke:none"
         transform="matrix(0.13333333,0,0,-0.13333333,0,184.46667)" />
      <path
         id="path6"
         d="m 506.254,1321.73 c 12.035,-2.57 23.648,-6.5 34.574,-11.93 10.953,-5.4 21.254,-12.12 31.422,-19.53 15.07,-10.88 30.301,-23.51 48.191,-33.47 v 27.03 c -12.281,6.74 -24.5,14.88 -37.281,22.8 -11.164,6.9 -23,13.41 -35.562,18.44 -12.535,5.07 -25.778,8.44 -39.059,10.21 -13.285,1.76 -26.68,1.87 -39.754,0.81 -0.758,-0.05 -1.515,-0.15 -2.277,-0.21 v -10.6 c 0.887,0.01 1.781,0.05 2.672,0.05 12.597,0.05 25.023,-1.04 37.074,-3.6"
         style="fill:#231f20;fill-opacity:1;fill-rule:nonzero;stroke:none"
         transform="matrix(0.13333333,0,0,-0.13333333,0,184.46667)" />
      <path
         id="path7"
         d="M 1011.11,632.707 C 996.016,576.043 973.125,520.715 942.785,467.301 l -0.004,-0.004 c -1.558,-2.746 -3.164,-5.477 -4.761,-8.203 -1.196,-2.051 -2.391,-4.098 -3.614,-6.145 -1.566,-2.625 -3.156,-5.254 -4.765,-7.875 -1.379,-2.25 -2.782,-4.496 -4.196,-6.742 -1.507,-2.414 -3.011,-4.828 -4.558,-7.238 -2.778,-4.324 -5.594,-8.637 -8.473,-12.938 -1.113,-1.66 -2.262,-3.308 -3.387,-4.961 -2.148,-3.16 -4.316,-6.32 -6.519,-9.465 -1.27,-1.804 -2.547,-3.601 -3.832,-5.406 -2.262,-3.168 -4.551,-6.324 -6.867,-9.48 -1.137,-1.551 -2.27,-3.106 -3.426,-4.66 -3.434,-4.602 -6.91,-9.204 -10.465,-13.786 -0.035,-0.039 -0.063,-0.078 -0.098,-0.128 -3.3,-4.239 -6.726,-8.45 -10.132,-12.661 C 830.285,311.281 786.766,266.84 737.27,224.602 700.762,193.441 660.965,163.488 618.156,134.789 597.648,121.039 576.512,107.551 554.598,94.3984 L 526.766,77.6992 v 0 0 L 498.93,94.3984 C 363.617,175.609 254.871,268.422 175.711,370.27 c -2.309,2.968 -4.539,5.968 -6.797,8.96 -1.523,2.008 -3.082,4.008 -4.578,6.024 -2.758,3.711 -5.434,7.445 -8.113,11.176 -0.938,1.316 -1.907,2.621 -2.84,3.933 -3.047,4.297 -6.012,8.617 -8.957,12.942 -0.496,0.734 -1.016,1.457 -1.508,2.191 -3.223,4.77 -6.367,9.563 -9.469,14.367 -0.172,0.266 -0.351,0.528 -0.519,0.793 C 91.3711,495.27 61,562.969 42.4219,632.707 19.9414,717.094 16.7578,812.109 33.2266,907.48 c 5.3672,31.079 12.289,57.778 20.9062,80.961 2.6485,-17.117 9.3633,-32.91 19.0899,-46.378 -3.1719,-12.387 -5.9571,-25.497 -8.4727,-40.024 -3.9219,-22.746 -6.6836,-45.41 -8.2812,-67.918 L 207.027,763.773 c 2.528,4.04 5.289,7.926 8.465,11.461 2.281,2.571 4.75,4.942 7.321,7.207 l -91.032,118.715 c 9.196,-2.558 18.867,-3.957 28.867,-3.957 7.196,0 14.235,0.789 21.082,2.153 l 61.895,-103.278 c 7.328,3.41 15.117,5.703 23.082,6.914 l -9.246,154.723 c 3.129,6.426 5.73,13.191 7.566,20.328 l 21.977,72.481 0.801,2.64 h 482.297 l 3.406,3.79 c 17.199,19.16 48.172,41.98 98.027,41.98 27.078,0 52.653,-9.42 73.965,-27.23 16.207,-13.56 30.313,-32.19 41.922,-55.37 14.468,-28.889 25.218,-64.49 32.878,-108.85 16.47,-95.371 13.29,-190.386 -9.19,-274.773 z M 242.945,983.938 c -8.879,-34.875 -38.625,-59.954 -73.894,-63.434 -2.774,-0.274 -5.571,-0.453 -8.403,-0.453 -44.894,0 -81.6636,35.039 -84.6402,79.187 -0.125,1.902 -0.293,3.802 -0.293,5.742 0,23.26 9.6875,45.56 26.8052,61.81 1.808,1.7 82.839,80.82 82.839,80.82 h 82.543 v -81.32 z M 358.48,1316.44 c 11.895,10.94 48.083,44.19 128.426,44.19 63.883,0 99.949,-24.95 131.774,-46.97 23.203,-16.06 43.238,-29.93 68.73,-29.93 h 66.203 l 72.551,-51.53 -30.027,-64.28 h -65.231 c -9.48,0.65 -18.832,4.07 -26.234,10.46 -9.293,7.81 -15.082,19.93 -16.086,33.1 h -11.465 c -0.398,-7.82 0.484,-15.89 3.02,-23.63 2.543,-7.84 6.769,-15.3 12.445,-21.62 2.484,-2.78 5.277,-5.3 8.258,-7.59 l -16.164,-34.59 44.472,-48.03 h -33.777 l -58.465,50.16 h -13.605 l 43.035,-50.16 h -86.453 l -49.938,49.93 h -29.765 c 5.968,13.43 9.48,27.89 10.089,42.43 0.133,2.67 0.125,5.33 0.102,7.99 l -0.57,7.96 -0.305,3.97 -0.68,3.94 -1.41,7.83 c -2.656,10.27 -6.148,20.34 -11.34,29.55 -5.211,9.14 -11.238,17.86 -18.738,25.2 l -2.711,2.84 -2.957,2.58 c -1.992,1.69 -3.91,3.47 -5.969,5.07 -4.269,3.01 -8.386,6.21 -13.011,8.64 -13.938,8.29 -29.688,13.01 -45.625,14.62 -4.567,0.45 -9.153,0.7 -13.711,0.65 v -6.51 -4.55 c 18.5,-0.78 36.8,-6 52.043,-16.17 3.949,-2.31 7.39,-5.34 10.988,-8.11 1.719,-1.49 3.301,-3.14 4.961,-4.68 l 2.457,-2.36 2.219,-2.58 c 6.183,-6.65 10.941,-14.46 15.004,-22.45 4.039,-8.06 6.503,-16.75 8.339,-25.46 l 0.836,-6.65 0.418,-3.31 0.063,-3.34 0.164,-6.67 c -0.102,-2.22 -0.203,-4.45 -0.426,-6.65 -1.641,-17.68 -8.301,-34.63 -18.785,-48.6 l -13.52,-18.03 h 62.371 l 27.09,-27.08 H 290.754 v 94.44 h -81.961 z m 684.35,-405.073 c -8.05,46.602 -19.49,84.278 -34.98,115.193 -13.018,26 -29.065,47.09 -47.69,62.66 -25.48,21.3 -56.125,32.57 -88.625,32.57 -43.574,0 -82.902,-16.17 -111.367,-45.64 l -48.273,52.15 7.824,16.76 h 65.742 l -7.848,-16.79 h 25.223 l 52.098,111.53 -94.032,66.79 H 687.41 c -18.355,0 -34.847,11.41 -55.726,25.86 -32.864,22.74 -73.762,51.03 -144.778,51.03 -60.058,0 -107.125,-16.43 -144.133,-50.44 l -166.71,-162.58 h -0.008 c 0,0 -93.6917,-91.46 -93.973,-91.75 C 68.2109,1064.58 55.9844,1047.14 45.6758,1026.56 30.1953,995.645 18.7539,957.969 10.707,911.367 -6.32031,812.77 -2.98828,714.375 20.3359,626.82 45.5898,532.043 91.7969,441.012 157.668,356.25 238.566,252.16 349.426,157.469 487.172,74.8086 l 39.594,-23.7695 39.589,23.7695 c 137.747,82.6604 248.61,177.3394 329.508,281.4414 65.875,84.762 112.077,175.793 137.327,270.57 23.33,87.555 26.66,185.95 9.64,284.547"
         style="fill:#231f20;fill-opacity:1;fill-rule:nonzero;stroke:none"
         transform="matrix(0.13333333,0,0,-0.13333333,0,184.46667)" />
      <path
         id="path8"
         d="m 759.105,1225.22 c 6.817,0 12.34,5.53 12.34,12.34 0,6.82 -5.523,12.34 -12.34,12.34 -6.816,0 -12.339,-5.52 -12.339,-12.34 0,-6.81 5.523,-12.34 12.339,-12.34"
         style="fill:#231f20;fill-opacity:1;fill-rule:nonzero;stroke:none"
         transform="matrix(0.13333333,0,0,-0.13333333,0,184.46667)" />
      <path
         id="path9"
         d="m 688.57,1231.09 c 0,0 0.016,0.09 0.051,0.22 0.453,1.91 4.359,16.39 19.098,18.86 v 11.7 h -30.731 v -30.78 h 11.582"
         style="fill:#231f20;fill-opacity:1;fill-rule:nonzero;stroke:none"
         transform="matrix(0.13333333,0,0,-0.13333333,0,184.46667)" />
      <path
         id="path10"
         d="m 605.766,573.727 c 13.875,-6.661 29.597,-14.211 59.453,-14.211 20.234,0 33.965,3.472 45.039,7.781 0.144,0.058 0.301,0.109 0.449,0.172 5.086,2 9.617,4.172 13.965,6.258 0.273,0.132 0.543,0.257 0.816,0.39 2.559,1.227 5.067,2.418 7.621,3.535 0.434,0.196 0.868,0.387 1.309,0.575 l 28.363,-21.344 -0.004,-233.992 c -0.023,-0.032 -0.05,-0.059 -0.078,-0.09 L 748.426,334.75 V 548.809 L 732.43,560.844 V 338.488 c -5.879,-2.168 -11.09,-4.629 -16.172,-7.066 -1.106,-0.531 -2.207,-1.051 -3.305,-1.582 -12.047,-5.699 -24.437,-10.711 -47.746,-10.711 -25.43,0 -37.875,5.973 -51.043,12.293 -13.906,6.68 -28.316,13.558 -56.203,13.84 l -1.609,21.039 -1.856,24.203 71.992,-35.672 -4.953,23.137 -33.515,156.508 26.738,-5.438 -9.746,45.051 c 0.25,-0.125 0.5,-0.242 0.754,-0.363 z m -157.985,0 c 0.254,0.121 0.496,0.238 0.746,0.355 l -9.73,-44.953 h 0.004 l -0.02,-0.094 26.746,5.442 -38.457,-179.637 71.645,35.504 -1.813,-24.133 -1.566,-20.961 c -27.727,-0.32 -42.098,-7.168 -55.957,-13.828 -13.176,-6.32 -25.617,-12.293 -51.051,-12.293 -23.305,0 -35.699,5.012 -47.738,10.711 -1.106,0.531 -2.203,1.051 -3.309,1.582 -5.086,2.437 -10.293,4.898 -16.176,7.066 V 560.844 L 320.43,560.34 305.109,548.809 V 334.75 l -14.277,-11.949 c -0.023,0.031 -0.047,0.051 -0.07,0.078 v 70.988 11.387 l -0.008,151.629 28.371,21.344 c 0.438,-0.184 0.867,-0.379 1.305,-0.571 1.914,-0.843 3.8,-1.718 5.707,-2.621 0.906,-0.433 1.82,-0.867 2.742,-1.312 4.344,-2.086 8.867,-4.254 13.949,-6.254 0.149,-0.063 0.305,-0.114 0.449,-0.172 11.082,-4.309 24.817,-7.781 45.051,-7.781 29.86,0 45.574,7.55 59.453,14.211 z M 717.242,314.191 c 2.016,0.93 3.981,1.868 5.934,2.809 4.605,2.211 9.133,4.352 14.105,6.219 l 12.727,-10.649 c -3.524,-1.05 -6.77,-2.32 -10.082,-3.8 -0.324,-0.149 -0.656,-0.309 -0.977,-0.45 -1.898,-0.871 -3.828,-1.789 -5.89,-2.769 -0.871,-0.422 -1.75,-0.852 -2.641,-1.27 -15.133,-7.211 -32.836,-14.851 -65.211,-14.851 -34.266,0 -52.117,8.558 -67.863,16.121 -11.297,5.418 -19.692,9.437 -37.102,9.969 l -0.785,10.3 -0.266,3.418 c 23.414,-0.449 35.418,-6.179 48.051,-12.238 14.203,-6.82 28.895,-13.871 57.965,-13.871 25.074,0 39.445,5.242 52.035,11.062 z m -223.367,11.618 -0.77,-10.297 c -17.277,-0.551 -25.656,-4.563 -36.91,-9.961 -15.75,-7.563 -33.593,-16.121 -67.867,-16.121 -32.375,0 -50.082,7.64 -65.211,14.851 -0.887,0.418 -1.769,0.848 -2.644,1.27 -2.407,1.148 -4.649,2.219 -6.86,3.219 -0.34,0.152 -0.675,0.289 -1.011,0.441 -2.965,1.289 -5.907,2.418 -9.075,3.359 l 9.543,7.981 0.157,0.14 0.386,0.321 2.645,2.207 c 4.972,-1.867 9.496,-4.008 14.101,-6.219 1.957,-0.941 3.926,-1.879 5.934,-2.809 12.594,-5.82 26.961,-11.062 52.035,-11.062 29.078,0 43.766,7.051 57.969,13.871 12.598,6.039 24.562,11.762 47.832,12.238 z m 46.699,46.023 5.239,-160.094 h -38.071 l 5.563,160.211 0.906,26.071 12.559,6.226 12.957,-6.422 z m 44.449,186.578 -25.796,5.246 v -0.004 l 35.449,-169.379 0.012,-0.05 -0.008,0.007 0.011,-0.054 -67.921,27.39 -67.922,-27.39 0.011,0.054 -0.004,-0.007 35.454,169.441 -25.786,-5.25 v 0.004 0 l 33.719,161.145 v 0 l -19.504,-3.969 41.922,224.207 h 4.215 l 41.926,-224.207 -19.508,3.969 v 0 z m 95.797,292.934 -3.515,-2.559 -21.114,15.344 -21.109,-15.344 -3.516,2.559 8.063,24.812 -21.109,15.34 1.343,4.137 h 26.09 l 8.063,24.812 h 4.347 l 8.067,-24.812 h 26.093 l 1.34,-4.137 -21.109,-15.34 z m 118.039,43.121 -3.515,-2.555 -21.114,15.336 -21.105,-15.336 -3.516,2.555 8.059,24.812 -21.105,15.336 1.339,4.137 h 26.094 l 8.063,24.82 h 4.343 l 8.071,-24.82 h 26.093 l 1.34,-4.137 -21.113,-15.336 z m 55.739,-2.969 1.347,4.137 h 26.094 l 8.063,24.812 h 4.343 l 8.067,-24.812 h 26.093 l 1.344,-4.137 -21.113,-15.34 8.066,-24.812 -3.515,-2.559 -21.114,15.344 -21.109,-15.344 -3.519,2.559 8.066,24.812 z m 134.179,10.543 c -12.988,75.227 -43.867,164.901 -117.242,164.901 -52.07,0 -76.25,-31.24 -84.672,-45.77 H 518.914 L 335.879,782.473 c 2.309,-2.039 4.516,-4.196 6.59,-6.477 3.715,-3.992 6.949,-8.406 9.797,-13.07 l 131.277,59.371 -10.801,-47.551 -110.59,-35.117 c 2.184,-8.168 3.25,-16.668 3.129,-25.254 -3.941,0.82 -7.461,1.848 -10.769,3.012 -3.739,1.32 -7.207,2.82 -10.66,4.426 -1.688,0.785 -3.372,1.589 -5.082,2.417 -3.258,1.563 -6.622,3.168 -10.247,4.719 -7.57,3.25 -16.296,6.219 -27.601,7.942 -1.555,0.234 -3.16,0.449 -4.817,0.632 -2.542,0.29 -5.214,0.508 -8.019,0.661 -2.434,0.132 -4.957,0.214 -7.606,0.23 -0.394,0.004 -0.765,0.02 -1.164,0.02 -0.39,0 -0.75,-0.016 -1.128,-0.02 -2.649,-0.016 -5.176,-0.098 -7.602,-0.23 -2.625,-0.141 -5.133,-0.336 -7.52,-0.594 -1.843,-0.203 -3.609,-0.438 -5.328,-0.695 -10.871,-1.657 -19.367,-4.461 -26.734,-7.559 -3.965,-1.668 -7.613,-3.418 -11.133,-5.106 -1.793,-0.867 -3.551,-1.707 -5.312,-2.519 -3.364,-1.563 -6.754,-3.023 -10.391,-4.309 -3.301,-1.168 -6.816,-2.191 -10.738,-3.011 -0.141,8.945 1.047,17.8 3.425,26.281 L 54.8555,787.793 c 0.0156,-16.621 0.7422,-33.102 2.0625,-49.43 -0.0196,0 -0.0391,0 -0.0586,0 0.1328,-1.656 0.3476,-3.285 0.4922,-4.933 0.3047,-3.414 0.5429,-6.84 0.9023,-10.242 l 0.125,0.015 c 0.2656,-2.543 0.4609,-5.121 0.7656,-7.652 0.7188,0.012 1.4141,0.031 2.1563,0.031 1.914,0 3.7305,-0.043 5.5,-0.109 0.3945,-0.012 0.7812,-0.032 1.1719,-0.051 1.5195,-0.07 2.9921,-0.164 4.4101,-0.274 0.1836,-0.015 0.375,-0.031 0.5586,-0.046 3.4141,-0.297 6.5508,-0.719 9.4609,-1.258 v 0.004 c 11.5665,-2.129 19.6247,-5.977 28.4687,-10.219 13.871,-6.66 29.59,-14.207 59.445,-14.207 29.848,0 45.571,7.547 59.442,14.207 4.277,2.051 8.363,4.008 12.754,5.726 8.082,3.168 17.218,5.504 30.386,6.075 1.321,0.058 2.68,0.097 4.086,0.117 0.778,0.016 1.524,0.035 2.332,0.035 0.786,0 1.516,-0.019 2.278,-0.035 1.492,-0.02 2.929,-0.063 4.328,-0.125 12.445,-0.559 21.273,-2.695 29.027,-5.621 4.84,-1.821 9.278,-3.942 13.93,-6.172 13.879,-6.66 29.601,-14.207 59.449,-14.207 29.86,0 45.582,7.547 59.453,14.207 3.317,1.586 6.52,3.125 9.832,4.535 l -5.004,-22.035 21.102,4.301 -5.035,-23.262 c -11.969,-2.68 -20.735,-6.863 -29.297,-10.977 -13.176,-6.32 -25.617,-12.293 -51.051,-12.293 -25.43,0 -37.875,5.973 -51.047,12.293 -14.203,6.813 -28.894,13.868 -57.965,13.868 -29.074,0 -43.757,-7.051 -57.961,-13.868 -13.167,-6.32 -25.609,-12.293 -51.039,-12.293 -25.429,0 -37.867,5.973 -51.035,12.293 -8.367,4.016 -17.004,8.11 -28.7029,10.813 0,0 -0.0039,0.019 -0.0078,0.027 -0.5898,0.137 -1.2344,0.25 -1.8398,0.375 -0.9297,0.196 -1.8477,0.399 -2.8125,0.574 -1.0664,0.2 -2.1875,0.364 -3.3086,0.536 -0.7149,0.113 -1.3867,0.246 -2.1211,0.347 l -0.0078,-0.023 c -4.2383,0.574 -8.8282,0.98 -13.9258,1.137 1.125,-5.434 2.332,-10.825 3.6133,-16.18 3.3672,-0.207 6.4414,-0.555 9.3437,-0.984 1.0547,-0.157 2.0742,-0.329 3.0742,-0.512 0.7071,-0.125 1.4297,-0.246 2.1133,-0.387 1.6289,-0.336 3.2031,-0.691 4.7071,-1.09 0.1523,-0.035 0.2929,-0.082 0.4453,-0.121 1.625,-0.433 3.1953,-0.902 4.707,-1.402 6.4964,-2.137 12.0704,-4.785 17.7964,-7.531 14.208,-6.825 28.887,-13.868 57.961,-13.868 29.067,0 43.754,7.051 57.961,13.868 13.172,6.324 25.61,12.293 51.039,12.293 25.434,0 37.875,-5.969 51.047,-12.293 14.207,-6.825 28.895,-13.868 57.965,-13.868 29.078,0 43.766,7.043 57.969,13.868 5.918,2.839 11.699,5.605 18.57,7.793 L 454.48,601.578 c -6.175,-2.265 -11.507,-4.816 -16.589,-7.258 -13.364,-6.41 -24.911,-11.949 -49.563,-11.949 -24.648,0 -36.195,5.539 -49.558,11.949 -13.879,6.66 -29.602,14.211 -59.454,14.211 -29.851,0 -45.574,-7.551 -59.445,-14.211 -13.363,-6.41 -24.906,-11.949 -49.555,-11.949 -24.648,0 -36.191,5.539 -49.554,11.949 -3.336,1.61 -6.824,3.239 -10.516,4.817 0,0.008 -0.004,0.019 -0.008,0.031 -0.211,0.09 -0.445,0.176 -0.66,0.262 -0.465,0.195 -0.894,0.406 -1.367,0.601 l -0.02,-0.051 c -6.914,2.821 -14.8004,5.364 -24.7301,6.918 2.7696,-8.441 5.75,-16.843 8.8868,-25.222 l -0.0547,-0.02 c 13.457,-35.957 30.371,-71.351 50.527,-105.906 0.918,-1.57 1.817,-3.141 2.746,-4.703 1.45,-2.453 2.942,-4.891 4.426,-7.328 1.102,-1.805 2.196,-3.61 3.309,-5.414 1.433,-2.309 2.894,-4.61 4.359,-6.914 1.231,-1.938 2.465,-3.875 3.719,-5.809 1.418,-2.184 2.848,-4.359 4.289,-6.531 1.387,-2.09 2.781,-4.176 4.195,-6.258 1.367,-2.02 2.739,-4.035 4.125,-6.055 1.59,-2.3 3.203,-4.593 4.825,-6.89 1.277,-1.805 2.546,-3.614 3.839,-5.418 1.907,-2.649 3.852,-5.289 5.793,-7.926 1.071,-1.449 2.125,-2.906 3.203,-4.356 3.067,-4.097 6.168,-8.179 9.329,-12.246 C 277.695,291.191 383.484,201 515.398,121.84 l 11.368,-6.828 11.363,6.828 C 670.047,201 775.84,291.191 852.551,389.902 c 0.109,0.137 0.207,0.27 0.312,0.407 4.766,6.14 9.395,12.32 13.934,18.527 0.57,0.777 1.148,1.555 1.723,2.336 4.578,6.32 9.046,12.668 13.398,19.055 0.363,0.535 0.73,1.074 1.098,1.617 9.242,13.613 17.992,27.371 26.187,41.277 21.414,36.379 39.207,73.695 53.184,111.641 l -0.071,0.031 c 2.715,7.34 5.329,14.711 7.754,22.105 -9.925,-1.554 -17.8,-4.093 -24.715,-6.914 l -0.019,0.047 c -0.434,-0.183 -0.82,-0.371 -1.25,-0.547 -0.262,-0.109 -0.539,-0.211 -0.793,-0.316 -0.004,-0.012 -0.008,-0.027 -0.016,-0.035 -3.679,-1.578 -7.16,-3.207 -10.492,-4.813 -13.363,-6.41 -24.906,-11.949 -49.555,-11.949 -24.648,0 -36.191,5.539 -49.55,11.949 -13.871,6.66 -29.602,14.211 -59.45,14.211 -29.855,0 -45.574,-7.551 -59.453,-14.211 -13.363,-6.41 -24.906,-11.949 -49.558,-11.949 -24.653,0 -36.196,5.539 -49.563,11.949 -5.082,2.442 -10.418,4.996 -16.593,7.258 l -19.231,88.852 21.094,-4.301 v 0.004 h 0.004 l -12.754,56.137 69.121,68.566 45.57,-33.481 71.363,72.075 71.36,-72.075 45.488,33.418 81.684,-82.816 20.539,-20.824 c 0.976,7.199 1.781,14.461 2.5,21.758 l 0.051,-0.004 c 0.097,1.011 0.148,2.039 0.242,3.047 0.14,1.496 0.308,2.972 0.437,4.472 l -0.078,0.078 c 4.517,53.879 1.992,109.52 -7.676,165.555"
         style="fill:#231f20;fill-opacity:1;fill-rule:nonzero;stroke:none"
         transform="matrix(0.13333333,0,0,-0.13333333,0,184.46667)" />
      <path
         id="path11"
         d="m 710.258,506.066 c 2.496,1.004 4.883,2.059 7.203,3.133 v 17.707 c -0.398,-0.191 -0.809,-0.386 -1.203,-0.578 -2,-0.957 -3.988,-1.902 -6,-2.832 -11.254,-5.16 -23.477,-9.457 -45.051,-9.457 -23.516,0 -35.926,5.106 -48.074,10.875 v -17.582 c 11.707,-5.07 25.582,-9.289 48.074,-9.289 20.586,0 33.949,3.539 45.051,8.023"
         style="fill:#231f20;fill-opacity:1;fill-rule:nonzero;stroke:none"
         transform="matrix(0.13333333,0,0,-0.13333333,0,184.46667)" />
      <path
         id="path12"
         d="m 710.258,458.508 c -11.254,-5.164 -23.477,-9.457 -45.051,-9.457 -16.516,0 -27.543,2.523 -36.859,6.019 v -16.933 c 9.531,-3 21.062,-5.09 36.859,-5.09 20.586,0 33.949,3.547 45.051,8.027 2.496,1.008 4.883,2.063 7.203,3.137 v 17.703 c -0.398,-0.195 -0.809,-0.387 -1.203,-0.574 -2,-0.957 -3.988,-1.906 -6,-2.832"
         style="fill:#231f20;fill-opacity:1;fill-rule:nonzero;stroke:none"
         transform="matrix(0.13333333,0,0,-0.13333333,0,184.46667)" />
      <path
         id="path13"
         d="m 710.258,393.637 c -11.254,-5.16 -23.477,-9.461 -45.051,-9.461 -8.422,0 -15.402,0.664 -21.473,1.773 v -16.23 c 6.231,-0.957 13.262,-1.539 21.473,-1.539 20.586,0 33.949,3.539 45.051,8.031 2.496,1 4.883,2.059 7.203,3.129 v 17.703 c -0.398,-0.191 -0.809,-0.383 -1.203,-0.574 -2,-0.961 -3.988,-1.906 -6,-2.832"
         style="fill:#231f20;fill-opacity:1;fill-rule:nonzero;stroke:none"
         transform="matrix(0.13333333,0,0,-0.13333333,0,184.46667)" />
      <path
         id="path14"
         d="m 138.566,983.828 9.016,-6.137 93.621,127.859 v 16.31 H 225.75 L 138.566,983.828"
         style="fill:#231f20;fill-opacity:1;fill-rule:nonzero;stroke:none"
         transform="matrix(0.13333333,0,0,-0.13333333,0,184.46667)" />
      <path
         id="path15"
         d="m 668.965,660.781 v 55.024 h -23.141 v -13.364 h 7.653 v -41.66 h 15.488"
         style="fill:#231f20;fill-opacity:1;fill-rule:nonzero;stroke:none"
         transform="matrix(0.13333333,0,0,-0.13333333,0,184.46667)" />
      <path
         id="path16"
         d="m 734.324,671.66 c -3.074,0 -5.582,2.563 -5.582,5.723 0,3.226 2.508,5.859 5.582,5.859 3.078,0 5.578,-2.633 5.578,-5.859 0,-3.16 -2.5,-5.723 -5.578,-5.723 z m 0,24.59 c -2.797,0 -5.078,2.34 -5.078,5.219 0,2.886 2.281,5.226 5.078,5.226 2.797,0 5.078,-2.34 5.078,-5.226 0,-2.879 -2.281,-5.219 -5.078,-5.219 z m -21.207,-20.641 c 0,-11.007 10.93,-16.953 21.207,-16.953 10.278,0 21.207,5.946 21.207,16.953 0,6.442 -3.418,11.504 -9.453,14.133 4.402,2.227 7.254,6.899 7.254,12.156 0,11.02 -9.852,16.032 -19.008,16.032 -9.156,0 -19.004,-5.012 -19.004,-16.032 0,-5.257 2.848,-9.929 7.25,-12.156 -6.035,-2.629 -9.453,-7.691 -9.453,-14.133"
         style="fill:#231f20;fill-opacity:1;fill-rule:nonzero;stroke:none"
         transform="matrix(0.13333333,0,0,-0.13333333,0,184.46667)" />
      <path
         id="path17"
         d="m 817.281,687.141 c 4.36,0 7.778,-3.477 7.778,-7.918 0,-4.52 -3.418,-8.059 -7.778,-8.059 -4.402,0 -7.992,3.617 -7.992,8.059 0,4.367 3.59,7.918 7.992,7.918 z m -2.664,28.664 -11.715,-15.336 c -3.988,-5.211 -8.746,-13.215 -8.746,-21.739 0,-5.597 2.856,-11.453 7.469,-15.296 3.816,-3.032 9.555,-4.778 15.727,-4.778 11.441,0 23.753,6.574 23.753,20.992 0,9.489 -6.289,19.575 -17.945,19.575 -1.836,0 -3.523,-0.239 -5.258,-0.754 l 14.559,17.336 h -17.844"
         style="fill:#231f20;fill-opacity:1;fill-rule:nonzero;stroke:none"
         transform="matrix(0.13333333,0,0,-0.13333333,0,184.46667)" />
      <path
         id="path18"
         d="m 898.109,671.66 c -3.074,0 -5.578,2.563 -5.578,5.723 0,3.226 2.504,5.859 5.578,5.859 3.075,0 5.582,-2.633 5.582,-5.859 0,-3.16 -2.507,-5.723 -5.582,-5.723 z m 0,24.59 c -2.796,0 -5.078,2.34 -5.078,5.219 0,2.886 2.282,5.226 5.078,5.226 2.801,0 5.082,-2.34 5.082,-5.226 0,-2.879 -2.281,-5.219 -5.082,-5.219 z m -21.203,-20.641 c 0,-11.007 10.922,-16.953 21.203,-16.953 10.282,0 21.207,5.946 21.207,16.953 0,6.442 -3.418,11.504 -9.453,14.133 4.403,2.227 7.258,6.899 7.258,12.156 0,11.02 -9.855,16.032 -19.012,16.032 -9.152,0 -19.004,-5.012 -19.004,-16.032 0,-5.257 2.844,-9.929 7.254,-12.156 -6.035,-2.629 -9.453,-7.691 -9.453,-14.133"
         style="fill:#231f20;fill-opacity:1;fill-rule:nonzero;stroke:none"
         transform="matrix(0.13333333,0,0,-0.13333333,0,184.46667)" />
      <path
         id="path19"
         d="m 1458.43,878.965 c 0,123.955 -27.47,171.525 -87.78,171.525 -60.96,0 -88.44,-47.57 -88.44,-171.525 0,-123.281 27.48,-171.524 88.44,-171.524 60.31,0 87.78,48.243 87.78,171.524 z m -276.72,0 c 0,125.965 68.34,203.685 188.94,203.685 119.93,0 188.28,-77.72 188.28,-203.685 0,-125.961 -68.35,-203.68 -188.28,-203.68 -120.6,0 -188.94,77.719 -188.94,203.68"
         style="fill:#231f20;fill-opacity:1;fill-rule:nonzero;stroke:none"
         transform="matrix(0.13333333,0,0,-0.13333333,0,184.46667)" />
      <path
         id="path20"
         d="m 1747.86,702.754 -8.71,-20.77 h -163.48 v 18.758 l 27.47,12.063 V 895.719 L 1575,939.938 v 7.371 l 101.17,33.504 h 14.07 l -2.01,-68.348 h 2.68 c 13.4,34.172 39.53,68.348 83.75,68.348 35.51,0 56.95,-20.774 56.95,-53.606 0,-30.152 -20.77,-48.91 -46.23,-48.91 -28.81,0 -46.23,19.43 -46.23,46.898 -16.75,-7.367 -32.83,-22.777 -48.24,-42.879 V 715.484 l 56.95,-12.73"
         style="fill:#231f20;fill-opacity:1;fill-rule:nonzero;stroke:none"
         transform="matrix(0.13333333,0,0,-0.13333333,0,184.46667)" />
      <path
         id="path21"
         d="m 1912.01,865.566 h 94.46 c 1.35,5.364 2.01,14.075 2.01,24.789 0,31.493 -8.71,59.629 -40.2,59.629 -29.47,0 -50.92,-27.464 -56.27,-84.418 z m 83.75,-134.003 c 30.15,0 47.57,7.375 72.36,26.132 l 12.73,-14.738 c -21.44,-48.242 -62.32,-67.672 -119.26,-67.672 -76.39,0 -136.69,48.91 -136.69,148.738 0,101.172 68.35,156.79 149.41,156.79 65.67,0 111.23,-38.196 111.23,-108.547 0,-10.715 -0.67,-25.457 -3.35,-38.188 h -171.53 c 1.35,-60.973 28.15,-102.515 85.1,-102.515"
         style="fill:#231f20;fill-opacity:1;fill-rule:nonzero;stroke:none"
         transform="matrix(0.13333333,0,0,-0.13333333,0,184.46667)" />
      <path
         id="path22"
         d="m 2234.93,950.66 c -34.17,0 -40.2,-26.133 -40.2,-69.683 0,-42.879 6.03,-69.012 40.2,-69.012 34.84,0 40.87,26.133 40.87,69.012 0,43.55 -6.03,69.683 -40.87,69.683 z m -69.01,-335.68 c 0,-35.507 26.13,-52.261 72.36,-52.261 52.93,0 93.13,14.742 93.13,56.957 0,25.457 -13.39,40.867 -52.93,40.867 h -84.41 c -17.43,-9.379 -28.15,-24.121 -28.15,-45.563 z m 134,125.293 c 63.66,0 103.86,-30.82 103.86,-95.14 0,-81.742 -81.07,-111.895 -169.51,-111.895 -81.75,0 -142.05,18.766 -142.05,70.352 0,38.191 30.15,55.617 75.71,62.312 v 2.008 c -38.19,4.692 -59.63,26.805 -59.63,61.645 0,34.84 26.13,55.613 62.98,62.98 -38.19,13.399 -62.31,40.199 -62.31,83.75 0,58.965 44.22,104.528 128.65,104.528 34.83,0 75.71,-6.708 107.2,-22.118 -2.68,4.024 -4.02,9.383 -4.02,16.086 0,21.442 16.08,34.839 36.85,34.839 21.44,0 36.85,-14.741 36.85,-38.19 0,-25.461 -16.75,-39.532 -40.87,-39.532 -17.42,0 -33.5,6.7 -52.93,14.071 v -6.699 c 23.45,-10.719 39.53,-33.504 39.53,-63.653 0,-64.32 -64.32,-93.133 -123.28,-93.133 -14.74,0 -28.15,1.34 -40.88,4.692 -14.06,-4.692 -24.79,-12.063 -24.79,-26.797 0,-13.406 8.04,-20.106 24.12,-20.106 h 104.52"
         style="fill:#231f20;fill-opacity:1;fill-rule:nonzero;stroke:none"
         transform="matrix(0.13333333,0,0,-0.13333333,0,184.46667)" />
      <path
         id="path23"
         d="m 2538.44,706.105 c 44.89,0 56.95,44.219 56.95,121.942 0,77.719 -12.06,121.937 -56.95,121.937 -44.89,0 -56.95,-44.218 -56.95,-121.937 0,-77.723 12.06,-121.942 56.95,-121.942 z m 0,-30.82 c -90.45,0 -150.08,51.59 -150.08,152.762 0,101.172 59.63,152.766 150.08,152.766 90.45,0 150.08,-51.594 150.08,-152.766 0,-101.172 -59.63,-152.762 -150.08,-152.762"
         style="fill:#231f20;fill-opacity:1;fill-rule:nonzero;stroke:none"
         transform="matrix(0.13333333,0,0,-0.13333333,0,184.46667)" />
      <path
         id="path24"
         d="m 3040.27,701.414 -8.71,-19.43 h -146.73 v 18.758 l 27.47,12.731 v 146.066 c 0,43.547 -22.79,58.289 -47.58,58.289 -22.77,0 -40.86,-11.39 -52.92,-22.777 V 714.145 l 39.53,-12.731 -8.71,-19.43 h -146.07 v 18.758 l 27.47,12.063 v 183.582 l -28.14,44.218 v 7.375 l 101.17,32.833 h 14.08 l -2.02,-58.293 h 2.69 c 24.12,38.191 57.62,58.293 102.5,58.293 48.92,0 86.44,-34.176 86.44,-102.516 V 714.145 l 39.53,-12.731"
         style="fill:#231f20;fill-opacity:1;fill-rule:nonzero;stroke:none"
         transform="matrix(0.13333333,0,0,-0.13333333,0,184.46667)" />
      <path
         id="path25"
         d="m 3310.26,761.715 c 0,36.18 -18.76,53.601 -62.98,71.019 l -48.24,20.106 c -49.58,20.094 -78.4,53.598 -78.4,115.238 0,79.732 61.65,114.572 126.64,114.572 35.51,0 64.32,-8.04 85.09,-14.74 l 32.83,14.74 6.03,-111.22 -18.09,-4.024 -32.16,42.214 c -20.1,28.14 -40.87,42.88 -75.71,42.88 -31.49,0 -52.93,-20.1 -52.93,-50.92 0,-30.822 14.06,-48.912 54.27,-64.99 l 50.25,-20.102 c 62.98,-24.793 90.45,-60.968 90.45,-122.609 0,-80.406 -60.97,-118.594 -132.66,-118.594 -48.25,0 -73.7,12.059 -92.46,21.438 l -36.19,-21.438 -11.38,127.301 20.76,4.019 32.84,-47.57 c 22.11,-34.172 46.9,-52.262 85.09,-52.262 35.51,0 56.95,20.102 56.95,54.942"
         style="fill:#231f20;fill-opacity:1;fill-rule:nonzero;stroke:none"
         transform="matrix(0.13333333,0,0,-0.13333333,0,184.46667)" />
      <path
         id="path26"
         d="m 3392.65,961.379 107.2,91.791 h 20.1 v -79.065 h 88.44 l -4.69,-34.835 h -83.08 V 781.145 c 0,-38.86 14.74,-53.598 41.54,-53.598 17.42,0 30.82,4.016 49.59,14.066 l 6.7,-16.082 c -20.78,-31.488 -54.28,-50.246 -97.16,-50.246 -52.26,0 -88.44,26.129 -88.44,94.473 V 939.27 h -40.2 v 22.109"
         style="fill:#231f20;fill-opacity:1;fill-rule:nonzero;stroke:none"
         transform="matrix(0.13333333,0,0,-0.13333333,0,184.46667)" />
      <path
         id="path27"
         d="m 3769.18,812.637 c -39.53,0 -62.31,-10.051 -62.31,-45.563 0,-24.789 14.74,-41.543 38.19,-41.543 14.74,0 26.8,3.352 38.86,14.074 v 73.032 z m 102.52,-66.332 c 0,-30.153 10.72,-36.852 42.2,-33.5 l 2.02,-13.399 c -16.75,-16.086 -38.87,-24.121 -70.36,-24.121 -28.8,0 -52.93,12.059 -58.29,42.879 l -2.01,0.672 c -14.07,-30.152 -44.89,-43.551 -81.07,-43.551 -44.89,0 -81.74,24.789 -81.74,80.399 0,58.961 46.9,87.773 121.27,87.773 14.08,0 29.49,-2.68 40.2,-5.359 v 25.457 c 0,38.863 -24.79,58.293 -64.32,58.293 -28.14,0 -51.59,-5.36 -79.73,-20.098 l -8.04,19.426 c 28.81,38.863 75.04,59.637 129.98,59.637 55.61,0 109.89,-24.797 109.89,-106.536 V 746.305"
         style="fill:#231f20;fill-opacity:1;fill-rule:nonzero;stroke:none"
         transform="matrix(0.13333333,0,0,-0.13333333,0,184.46667)" />
      <path
         id="path28"
         d="m 3883.74,961.379 107.2,91.791 h 20.1 v -79.065 h 88.44 l -4.69,-34.835 h -83.08 V 781.145 c 0,-38.86 14.74,-53.598 41.54,-53.598 17.42,0 30.82,4.016 49.58,14.066 l 6.7,-16.082 c -20.77,-31.488 -54.27,-50.246 -97.15,-50.246 -52.26,0 -88.44,26.129 -88.44,94.473 V 939.27 h -40.2 v 22.109"
         style="fill:#231f20;fill-opacity:1;fill-rule:nonzero;stroke:none"
         transform="matrix(0.13333333,0,0,-0.13333333,0,184.46667)" />
      <path
         id="path29"
         d="m 4190.59,865.566 h 94.48 c 1.33,5.364 2,14.075 2,24.789 0,31.493 -8.7,59.629 -40.2,59.629 -29.47,0 -50.91,-27.464 -56.28,-84.418 z m 83.75,-134.003 c 30.16,0 47.58,7.375 72.37,26.132 l 12.73,-14.738 c -21.44,-48.242 -62.31,-67.672 -119.27,-67.672 -76.38,0 -136.68,48.91 -136.68,148.738 0,101.172 68.34,156.79 149.41,156.79 65.67,0 111.23,-38.196 111.23,-108.547 0,-10.715 -0.67,-25.457 -3.36,-38.188 h -171.52 c 1.34,-60.973 28.15,-102.515 85.09,-102.515"
         style="fill:#231f20;fill-opacity:1;fill-rule:nonzero;stroke:none"
         transform="matrix(0.13333333,0,0,-0.13333333,0,184.46667)" />
      <path
         id="path30"
         d="m 1522.75,285.422 c 0,-97.82 -65,-147.402 -150.09,-147.402 -90.45,0 -152.76,36.179 -152.76,140.031 v 223.785 l -49.58,15.41 4.69,21.442 h 151.42 l 5.37,-21.442 -50.26,-15.41 V 287.43 c 0,-76.379 32.16,-111.891 96.49,-111.891 62.31,0 105.19,35.512 105.19,116.582 v 209.715 l -50.25,15.41 5.36,21.442 h 129.3 l 5.37,-21.442 -50.25,-15.41 V 285.422"
         style="fill:#231f20;fill-opacity:1;fill-rule:nonzero;stroke:none"
         transform="matrix(0.13333333,0,0,-0.13333333,0,184.46667)" />
      <path
         id="path31"
         d="m 1867.79,164.148 -8.71,-19.429 h -128.65 v 18.761 l 31.49,11.391 v 165.488 c 0,42.879 -26.79,51.594 -49.58,51.594 -26.79,0 -52.93,-13.402 -68.34,-26.805 V 176.879 l 46.91,-12.731 -8.71,-19.429 h -128.65 v 18.761 l 31.49,10.719 v 194.973 l -32.16,36.18 v 7.367 l 80.4,30.828 h 10.05 l -2.01,-56.953 h 2.68 c 26.8,44.219 67.67,56.953 97.82,56.953 38.86,0 79.07,-23.453 79.07,-91.797 V 176.879 l 46.9,-12.731"
         style="fill:#231f20;fill-opacity:1;fill-rule:nonzero;stroke:none"
         transform="matrix(0.13333333,0,0,-0.13333333,0,184.46667)" />
      <path
         id="path32"
         d="m 1935.44,572.855 c 23.45,0 41.54,-18.089 41.54,-41.542 0,-23.446 -18.09,-41.536 -41.54,-41.536 -23.45,0 -41.54,18.09 -41.54,41.536 0,23.453 18.09,41.542 41.54,41.542 z m 77.05,-408.707 -8.71,-19.429 h -128.64 v 18.761 l 31.49,10.719 v 194.973 l -32.16,36.18 v 7.367 l 80.4,30.828 h 10.72 V 176.879 l 46.9,-12.731"
         style="fill:#231f20;fill-opacity:1;fill-rule:nonzero;stroke:none"
         transform="matrix(0.13333333,0,0,-0.13333333,0,184.46667)" />
      <path
         id="path33"
         d="m 2215.49,402.672 -44.22,14.742 4.02,19.43 h 108.55 l 4.01,-19.43 -30.82,-12.73 -101.84,-259.965 h -33.5 l -106.53,256.617 -28.81,18.09 4.69,17.418 h 123.28 l 4.69,-20.098 -42.88,-10.726 46.9,-117.918 c 16.08,-40.204 24.12,-81.071 24.12,-81.071 h 2.68 c 0,0 8.71,40.199 24.79,81.739 l 40.87,113.902"
         style="fill:#231f20;fill-opacity:1;fill-rule:nonzero;stroke:none"
         transform="matrix(0.13333333,0,0,-0.13333333,0,184.46667)" />
      <path
         id="path34"
         d="m 2326.04,332.32 h 122.61 c 0.67,4.692 0.67,13.399 0.67,18.09 0,42.215 -16.75,64.32 -51.59,64.32 -32.16,0 -62.31,-25.457 -71.69,-82.41 z m 88.44,-150.75 c 32.83,0 56.28,8.711 83.08,27.469 l 8.71,-15.41 c -24.12,-36.848 -58.29,-55.609 -109.88,-55.609 -71.69,0 -128.64,49.582 -128.64,150.082 0,99.828 62.98,155.445 138.02,155.445 60.3,0 103.85,-37.527 103.85,-105.195 0,-10.723 -0.67,-22.114 -3.35,-34.84 h -182.24 c 0,-77.051 34.17,-121.942 90.45,-121.942"
         style="fill:#231f20;fill-opacity:1;fill-rule:nonzero;stroke:none"
         transform="matrix(0.13333333,0,0,-0.13333333,0,184.46667)" />
      <path
         id="path35"
         d="m 2671.08,164.82 -8.71,-20.101 h -142.04 v 18.761 l 31.49,10.719 v 194.973 l -32.16,36.18 v 7.367 l 80.4,30.828 h 10.05 l -2.01,-69.016 h 2.68 c 16.75,37.52 46.9,69.684 85.09,69.684 31.5,0 49.58,-17.422 49.58,-43.551 0,-26.805 -18.08,-40.875 -38.86,-40.875 -24.12,0 -38.19,17.422 -38.19,40.875 -22.78,-8.711 -40.87,-28.812 -57.62,-53.605 v -170.18 l 60.3,-12.059"
         style="fill:#231f20;fill-opacity:1;fill-rule:nonzero;stroke:none"
         transform="matrix(0.13333333,0,0,-0.13333333,0,184.46667)" />
      <path
         id="path36"
         d="m 2762.87,239.191 c 28.14,-60.3 54.27,-75.711 90.45,-75.711 30.15,0 50.25,10.719 50.25,42.211 0,25.457 -14.74,39.528 -48.24,50.918 l -38.19,13.403 c -40.2,14.07 -66.33,38.859 -66.33,88.437 0,57.625 41.54,85.098 97.82,85.098 13.4,0 40.2,-4.695 53.6,-12.063 l 32.16,11.387 5.36,-85.762 -14.07,-4.687 c -28.81,49.582 -52.26,63.652 -81.07,63.652 -28.14,0 -45.56,-16.082 -45.56,-40.203 0,-24.121 12.06,-39.531 44.89,-50.922 l 38.19,-12.73 c 44.22,-15.41 71.69,-38.86 71.69,-89.778 0,-59.632 -44.89,-84.421 -104.52,-84.421 -27.47,0 -50.25,8.039 -66.33,15.41 l -30.15,-15.41 -6.03,96.48 16.08,4.691"
         style="fill:#231f20;fill-opacity:1;fill-rule:nonzero;stroke:none"
         transform="matrix(0.13333333,0,0,-0.13333333,0,184.46667)" />
      <path
         id="path37"
         d="m 3032.2,572.855 c 23.45,0 41.54,-18.089 41.54,-41.542 0,-23.446 -18.09,-41.536 -41.54,-41.536 -23.45,0 -41.54,18.09 -41.54,41.536 0,23.453 18.09,41.542 41.54,41.542 z m 77.05,-408.707 -8.71,-19.429 H 2971.9 v 18.761 l 31.49,10.719 v 194.973 l -32.16,36.18 v 7.367 l 80.4,30.828 h 10.72 V 176.879 l 46.9,-12.731"
         style="fill:#231f20;fill-opacity:1;fill-rule:nonzero;stroke:none"
         transform="matrix(0.13333333,0,0,-0.13333333,0,184.46667)" />
      <path
         id="path38"
         d="m 3094.5,424.113 83.75,92.461 h 13.4 v -79.73 h 97.82 l -4.69,-31.492 h -93.13 V 231.148 c 0,-37.519 16.08,-52.929 44.22,-52.929 18.76,0 34.17,4.019 54.27,14.07 l 6.7,-16.75 c -22.11,-24.117 -47.57,-37.519 -91.12,-37.519 -44.89,0 -73.03,23.449 -73.03,83.082 v 184.25 h -38.19 v 18.761"
         style="fill:#231f20;fill-opacity:1;fill-rule:nonzero;stroke:none"
         transform="matrix(0.13333333,0,0,-0.13333333,0,184.46667)" />
      <path
         id="path39"
         d="m 3290.13,401.336 -28.81,18.09 4.68,17.418 h 123.96 l 4.69,-20.098 -42.88,-10.726 47.57,-125.961 c 18.76,-50.25 22.11,-85.09 22.11,-85.09 h 2.68 c 0,0 11.39,42.883 25.46,85.761 l 39.53,121.942 -44.22,14.742 4.02,19.43 h 107.2 l 4.02,-19.43 -30.82,-12.73 -93.13,-253.934 C 3393.98,36.1797 3358.46,0 3303.52,0 c -34.84,0 -53.6,20.0898 -53.6,45.5586 0,24.1133 14.75,38.8516 38.19,38.8516 20.77,0 34.17,-14.7383 34.17,-34.1719 0,-10.0391 -3.35,-18.0899 -6.7,-22.7695 26.81,0 61.64,48.9101 80.4,107.2032 l -105.85,266.664"
         style="fill:#231f20;fill-opacity:1;fill-rule:nonzero;stroke:none"
         transform="matrix(0.13333333,0,0,-0.13333333,0,184.46667)" />
    </g>
  </g>
</svg>
